%
M48
M72
T01C0.0320
T02C0.0354
T03C0.0400
%
T01
X6856Y6601
X7856Y6601
X8856Y6601
X9856Y6601
X11856Y16101
X12856Y16101
X14856Y16101
X15856Y16101
T02
X1356Y1351
X1356Y2351
X1356Y3351
X1356Y4351
X1356Y5351
X1356Y6351
X1356Y7351
X1356Y8351
X1356Y10101
X1356Y11101
X1356Y12101
X1356Y13101
X1356Y14101
X1356Y15101
X1356Y16101
X1356Y17101
X20356Y17101
X20356Y16101
X20356Y15101
X20356Y14101
X20356Y13101
X20356Y12101
X20356Y10101
X20356Y9101
X20356Y8101
X20356Y7101
X20356Y6101
X20356Y5101
T03
X16856Y12101
X15856Y12001
X14856Y12101
X12856Y12101
X11856Y12001
X10856Y12101
X9856Y3851
X10856Y3751
X11856Y3851
X7856Y3851
X6856Y3751
X5856Y3851
M30
