G75*
G70*
%OFA0B0*%
%FSLAX24Y24*%
%IPPOS*%
%LPD*%
%AMOC8*
5,1,8,0,0,1.08239X$1,22.5*
%
%ADD10C,0.0000*%
%ADD11OC8,0.0560*%
%ADD12C,0.0640*%
%ADD13C,0.0594*%
%ADD14C,0.0160*%
D10*
X000106Y000101D02*
X000106Y018347D01*
X021726Y018347D01*
X021726Y000101D01*
X000106Y000101D01*
D11*
X006856Y006601D03*
X007856Y006601D03*
X008856Y006601D03*
X009856Y006601D03*
X011856Y016101D03*
X012856Y016101D03*
X014856Y016101D03*
X015856Y016101D03*
D12*
X014856Y012421D02*
X014856Y011781D01*
X015856Y011681D02*
X015856Y012321D01*
X016856Y012421D02*
X016856Y011781D01*
X012856Y011781D02*
X012856Y012421D01*
X011856Y012321D02*
X011856Y011681D01*
X010856Y011781D02*
X010856Y012421D01*
X009856Y004171D02*
X009856Y003531D01*
X010856Y003431D02*
X010856Y004071D01*
X011856Y004171D02*
X011856Y003531D01*
X007856Y003531D02*
X007856Y004171D01*
X006856Y004071D02*
X006856Y003431D01*
X005856Y003531D02*
X005856Y004171D01*
D13*
X001653Y004351D02*
X001059Y004351D01*
X001059Y005351D02*
X001653Y005351D01*
X001653Y006351D02*
X001059Y006351D01*
X001059Y007351D02*
X001653Y007351D01*
X001653Y008351D02*
X001059Y008351D01*
X001059Y010101D02*
X001653Y010101D01*
X001653Y011101D02*
X001059Y011101D01*
X001059Y012101D02*
X001653Y012101D01*
X001653Y013101D02*
X001059Y013101D01*
X001059Y014101D02*
X001653Y014101D01*
X001653Y015101D02*
X001059Y015101D01*
X001059Y016101D02*
X001653Y016101D01*
X001653Y017101D02*
X001059Y017101D01*
X001059Y003351D02*
X001653Y003351D01*
X001653Y002351D02*
X001059Y002351D01*
X001059Y001351D02*
X001653Y001351D01*
X020059Y005101D02*
X020653Y005101D01*
X020653Y006101D02*
X020059Y006101D01*
X020059Y007101D02*
X020653Y007101D01*
X020653Y008101D02*
X020059Y008101D01*
X020059Y009101D02*
X020653Y009101D01*
X020653Y010101D02*
X020059Y010101D01*
X020059Y012101D02*
X020653Y012101D01*
X020653Y013101D02*
X020059Y013101D01*
X020059Y014101D02*
X020653Y014101D01*
X020653Y015101D02*
X020059Y015101D01*
X020059Y016101D02*
X020653Y016101D01*
X020653Y017101D02*
X020059Y017101D01*
D14*
X016856Y014101D02*
X016606Y014351D01*
X015106Y014351D01*
X014856Y014601D01*
X014856Y016101D01*
X012856Y016101D01*
X012856Y014851D01*
X012606Y014601D01*
X011106Y014601D01*
X010856Y014351D01*
X010856Y012101D01*
X008106Y012101D01*
X007856Y011851D01*
X007856Y006601D01*
X007856Y005351D01*
X007731Y005226D01*
X005981Y005226D01*
X005856Y005101D01*
X005856Y003851D01*
X008856Y005476D02*
X008856Y006601D01*
X007856Y006601D01*
X008856Y005476D02*
X008981Y005351D01*
X009606Y005351D01*
X009856Y005101D01*
X009856Y003851D01*
X016856Y007351D02*
X016856Y012101D01*
X016856Y014101D01*
X016856Y007351D02*
X017106Y007101D01*
X020356Y007101D01*
M02*
